{"title":"Tunnel.Rats.2008.DVDRiP.XviD.OPTIONAL-NORDICSUB-Zen_Bud","uid":5941889,"size":740115543,"categoryP":"video","categoryS":"movies","magnet":"?xt=urn:btih:ff83a4e161fc997498f77bc876bf4945d885ba60&amp;dn=Tunnel.Rats.2008.DVDRiP.XviD.OPTIONAL-NORDICSUB-Zen_Bud&amp;tr=udp%3A%2F%2Ftracker.openbittorrent.com%3A80&amp;tr=udp%3A%2F%2Fopen.demonii.com%3A1337&amp;tr=udp%3A%2F%2Ftracker.coppersurfer.tk%3A6969&amp;tr=udp%3A%2F%2Fexodus.desync.com%3A6969","seeders":1,"leechers":0,"uploader":"Zen_Bud","files":-1,"time":1289205189,"description":"******** Tunnel.Rats.2008.DVDRiP.XviD.OPTIONAL-NORDICSUB-Zen_Bud *********\n\nFormat                           : AVI\nFormat profile                   : OpenDML\nFile size                        : 700 MiB\nDuration                         : 1h 32mn\nOverall bit rate                 : 1 060 Kbps\nWriting application              : AVI-Mux GUI 1.17.8.3\n\nVideo\n\nFormat                           : MPEG-4 Visual\nCodec ID/Hint                    : XviD\nDuration                         : 1h 32mn\nBit rate                         : 928 Kbps\nWidth                            : 720 pixels\nHeight                           : 576 pixels\nDisplay aspect ratio             : 16:9\nStream size                      : 613 MiB (88%)\nWriting library                  : XviD 1.1.2 (UTC 2006-11-01)\n\nAudio\n\nFormat                           : MPEG Audio\nCodec ID/Hint                    : MP3\nDuration                         : 1h 32mn\nBit rate                         : 128 Kbps\nChannel(s)                       : 2 channels\nSampling rate                    : 48.0 KHz\nStream size                      : 84.5 MiB (12%)\nLanguage                         : English\n\nText #1\nLanguage                         : Swedish\n\nText #2\nLanguage                         : Norwegian\n\nText #3\nLanguage                         : Danish\n\nText #4\nLanguage                         : Finnish\n\n\n\nDuring the Vietnam War [1959-1975] a special US combat unit is sent out to hunt and kill the Viet Cong soldiers in a man-to-man combat in the endless tunnels underneath the jungle of Vietnam. Suicide squads of a special kind. ","torrent":{"xt":"urn:btih:ff83a4e161fc997498f77bc876bf4945d885ba60","amp;dn":"Tunnel.Rats.2008.DVDRiP.XviD.OPTIONAL-NORDICSUB-Zen_Bud","amp;tr":["udp%3A%2F%2Ftracker.openbittorrent.com%3A80","udp%3A%2F%2Fopen.demonii.com%3A1337","udp%3A%2F%2Ftracker.coppersurfer.tk%3A6969","udp%3A%2F%2Fexodus.desync.com%3A6969"],"infoHash":"ff83a4e161fc997498f77bc876bf4945d885ba60","infoHashBuffer":{"type":"Buffer","data":[255,131,164,225,97,252,153,116,152,247,123,200,118,191,73,69,216,133,186,96]},"announce":[],"urlList":[]}}